@startuml
title US204-DM
skinparam classAttributeIconSize 0
hide empty members

package "Aircraft Aggregate" {
    class Aircraft <<Entity>> <<Root>> {
        - totalFlightHours: Double
    }
}

package "Aircraft Model Aggregate" {
    class AircraftModel <<Entity>> <<Root>> {
    }
    class ModelName <<Value Object>> {
        - name: String
    }

    AircraftModel "1" *-- "1" ModelName : identified by >
    Aircraft "*" --> "1" AircraftModel : is of type >
}

package "Flight Operations Aggregate" {
    class ScheduledFlight <<Entity>> <<Root>> {
        - status: FlightStatus
    }

    ScheduledFlight "*" --> "1" Aircraft : assigned to >
}

@enduml