@startuml
skinparam classAttributeIconSize 0
hide empty members
title US216-DM

package "Route Aggregate" {
    class Route <<Entity>> <<Root>> {
        - estimatedFlightTime: Integer
        - minimumRange: Double
    }

    class RouteId <<Value Object>> {
        - id: String
    }

    enum RouteStatus <<Enumeration>> {
        ACTIVE
        INACTIVE
    }

    Route "1" *-- "1" RouteId : identified by >
    Route "1" --> "1" RouteStatus : has >
}

package "Airport Aggregate" {
    class Airport <<Entity>> <<Root>> {
    }

    class IATACode <<Value Object>> {
        - code: String
    }

    Airport "1" *-- "1" IATACode : identified by >
}

Route "*" --> "1" Airport : originates from >
Route "*" --> "1" Airport : destined to >
@enduml